<?xml version="1.0" standalone="no"?>
<!DOCTYPE svg PUBLIC "-//W3C//DTD SVG 20010904//EN"
 "http://www.w3.org/TR/2001/REC-SVG-20010904/DTD/svg10.dtd">
<svg version="1.0" xmlns="http://www.w3.org/2000/svg"
 width="512.000000pt" height="512.000000pt" viewBox="0 0 512.000000 512.000000"
 preserveAspectRatio="xMidYMid meet">
<metadata>
Created by potrace 1.15, written by Peter Selinger 2001-2017
</metadata>
<g transform="translate(0.000000,512.000000) scale(0.100000,-0.100000)"
fill="#000000" stroke="none">
<path d="M2540 4473 c-94 -11 -288 -56 -395 -93 -609 -210 -1081 -720 -1235
-1336 -33 -133 -60 -322 -60 -420 l0 -64 -322 0 -323 0 416 -417 c229 -230
421 -426 426 -435 7 -15 83 57 443 417 l435 435 -319 0 -319 0 6 108 c25 498
348 986 805 1216 516 260 1125 205 1576 -142 287 -221 477 -522 558 -889 32
-142 32 -444 0 -586 -122 -551 -508 -973 -1035 -1131 -151 -46 -251 -60 -422
-60 -189 0 -298 17 -466 74 -197 65 -379 170 -522 301 l-69 62 -154 -154 -154
-154 43 -43 c217 -222 582 -414 932 -488 167 -36 477 -45 657 -19 811 115
1441 709 1620 1525 20 95 22 131 23 380 0 251 -2 284 -23 380 -98 445 -320
817 -655 1096 -276 231 -602 377 -958 429 -99 14 -410 19 -509 8z"/>
<path d="M2562 2878 l3 -542 450 -267 c248 -147 453 -268 457 -268 3 -1 41 58
84 131 69 117 75 132 60 143 -9 7 -178 108 -376 226 l-360 213 0 453 0 453
-160 0 -160 0 2 -542z"/>
</g>
</svg>
